<svg id="ic-dashborad" xmlns="http://www.w3.org/2000/svg" width="50" height="50" viewBox="0 0 50 50">
  <path id="Path_2717" data-name="Path 2717" d="M0,0H50V50H0Z" fill="none"/>
  <path id="Path_2718" data-name="Path 2718" d="M36.333,3H7.167A4.179,4.179,0,0,0,3,7.167V36.333A4.179,4.179,0,0,0,7.167,40.5H36.333A4.179,4.179,0,0,0,40.5,36.333V7.167A4.179,4.179,0,0,0,36.333,3Zm0,33.333H7.167V7.167H36.333Zm-25-18.75H15.5V32.167H11.333Zm8.333-6.25h4.167V32.167H19.667ZM28,23.833h4.167v8.333H28Z" transform="translate(3.25 3.25)"/>
</svg>
