<svg xmlns="http://www.w3.org/2000/svg" width="20" height="20" viewBox="0 0 20 20">
  <g id="ic-edit-ok" transform="translate(-5348 -1641)">
    <path id="check-circle-fill_1_" data-name="check-circle-fill (1)" d="M16,8A8,8,0,1,1,8,0a8,8,0,0,1,8,8M12.03,4.97a.75.75,0,0,0-1.08.022L7.477,9.417,5.384,7.323a.75.75,0,0,0-1.06,1.06L6.97,11.03a.75.75,0,0,0,1.079-.02l3.992-4.99a.75.75,0,0,0-.01-1.05Z" transform="translate(5350 1643)" fill="#57c17a"/>
    <rect id="Rectangle_882" data-name="Rectangle 882" width="20" height="20" transform="translate(5348 1641)" fill="none"/>
  </g>
</svg>
