<svg id="ic-list" xmlns="http://www.w3.org/2000/svg" width="30" height="30" viewBox="0 0 30 30">
  <g id="Group_858" data-name="Group 858">
    <path id="Path_2591" data-name="Path 2591" d="M0,0H30V30H0Z" fill="none"/>
  </g>
  <g id="Group_859" data-name="Group 859" transform="translate(3.75 3.75)">
    <path id="Path_2592" data-name="Path 2592" d="M19.25,3H5.5A2.507,2.507,0,0,0,3,5.5V23a2.507,2.507,0,0,0,2.5,2.5H23A2.507,2.507,0,0,0,25.5,23V9.25ZM23,23H5.5V5.5H18v5h5ZM8,20.5H20.5V18H8ZM14.25,8H8v2.5h6.25ZM8,15.5H20.5V13H8Z" transform="translate(-3 -3)" fill="#707070"/>
  </g>
</svg>
