<svg xmlns="http://www.w3.org/2000/svg" width="50" height="50" viewBox="0 0 50 50">
  <g id="ic-news-edit" transform="translate(0 -0.687)">
    <g id="Group_915" data-name="Group 915" transform="translate(0 0.687)">
      <rect id="Rectangle_882" data-name="Rectangle 882" width="50" height="50" fill="none"/>
    </g>
    <g id="Group_916" data-name="Group 916" transform="translate(4.216 6.188)">
      <path id="Path_2606" data-name="Path 2606" d="M44.156,3l-3.52,3.59L37.137,3l-3.52,3.59L30.1,3,26.6,6.59,23.078,3l-3.52,3.59L16.059,3l-3.52,3.59L9.019,3,5.52,6.59,2,3V37.4a4.271,4.271,0,0,0,4.216,4.3H39.94a4.271,4.271,0,0,0,4.216-4.3ZM20.97,37.4H6.216V24.5H20.97Zm18.97,0H25.186V33.1H39.94Zm0-8.6H25.186V24.5H39.94Zm0-8.6H6.216V13.75H39.94Z" transform="translate(-2 -3)" fill="#333"/>
    </g>
  </g>
</svg>
