<svg id="ic-news-manage" xmlns="http://www.w3.org/2000/svg" width="50" height="50" viewBox="0 0 50 50">
  <path id="Path_2711" data-name="Path 2711" d="M0,0H50V50H0Z" fill="none"/>
  <path id="Path_2712" data-name="Path 2712" d="M29.083,6.167V20.75H8.6L7.375,21.979,6.167,23.187V6.167H29.083M31.167,2H4.083A2.089,2.089,0,0,0,2,4.083V33.25l8.333-8.333H31.167a2.089,2.089,0,0,0,2.083-2.083V4.083A2.089,2.089,0,0,0,31.167,2Zm10.417,8.333H37.417v18.75H10.333V33.25a2.089,2.089,0,0,0,2.083,2.083H35.333l8.333,8.333V12.417A2.089,2.089,0,0,0,41.583,10.333Z" transform="translate(2.167 2.167)"/>
</svg>
