<svg xmlns="http://www.w3.org/2000/svg" width="30" height="30" viewBox="0 0 30 30">
  <g id="ic-password" transform="translate(-1119 -1280)">
    <path id="key-fill" d="M6.774,18.049A6.774,6.774,0,1,1,12.9,8.372H27.1l2.9,2.9-2.9,2.9-1.936-1.936-1.936,1.936-1.936-1.936-1.936,1.936-1.936-1.936-1.936,1.936H12.9a6.774,6.774,0,0,1-6.122,3.871M4.838,13.21A1.936,1.936,0,1,0,2.9,11.275,1.936,1.936,0,0,0,4.838,13.21" transform="translate(1119 1284.5)" fill="#2fbe8d"/>
    <rect id="Rectangle_881" data-name="Rectangle 881" width="30" height="30" transform="translate(1119 1280)" fill="none"/>
  </g>
</svg>
