<svg xmlns="http://www.w3.org/2000/svg" xmlns:xlink="http://www.w3.org/1999/xlink" width="22" height="22" viewBox="0 0 22 22">
  <defs>
    <clipPath id="clip-path">
      <rect id="Rectangle_31" data-name="Rectangle 31" width="22" height="22" transform="translate(-0.218 -0.218)" fill="#1c7456"/>
    </clipPath>
  </defs>
  <g id="ic-question" transform="translate(0.276 0.276)">
    <g id="Group_4" data-name="Group 4" transform="translate(-0.058 -0.058)" clip-path="url(#clip-path)">
      <path id="Path_42" data-name="Path 42" d="M10.57,0A10.714,10.714,0,1,0,21.426,10.569,10.715,10.715,0,0,0,10.57,0m-.032,17.234h-.059a1.559,1.559,0,0,1,.037-3.118h.053a1.559,1.559,0,1,1-.031,3.118m3.832-7.606a7.083,7.083,0,0,1-1.279,1.145l-.654.451a1.778,1.778,0,0,0-.657.8,1.651,1.651,0,0,0-.1.671V12.8h-2.5l.007-.211a2.731,2.731,0,0,1,.412-1.8,10.6,10.6,0,0,1,1.863-1.5,1.961,1.961,0,0,0,.441-.451,1.586,1.586,0,0,0,.378-.925,1.8,1.8,0,0,0-.343-1.066,1.426,1.426,0,0,0-1.235-.464,1.347,1.347,0,0,0-1.248.577A2.318,2.318,0,0,0,9.08,8.206v.106H6.506l0-.111A3.912,3.912,0,0,1,8.182,4.827,4.406,4.406,0,0,1,10.6,4.192a5.225,5.225,0,0,1,3.124.9,3.118,3.118,0,0,1,1.264,2.691,3.079,3.079,0,0,1-.62,1.846" transform="translate(0.069 0.069)" fill="#1c7456"/>
    </g>
  </g>
</svg>
