<svg xmlns="http://www.w3.org/2000/svg" width="50" height="50" viewBox="0 0 50 50">
  <g id="ic-setting" transform="translate(-2477 -895)">
    <path id="settings" d="M40.642,16.832,37.274,16.4a16.932,16.932,0,0,0-1.02-2.462l2.08-2.679a2.663,2.663,0,0,0-.219-3.546L35.294,4.9a2.671,2.671,0,0,0-3.557-.228l-2.675,2.08A16.871,16.871,0,0,0,26.6,5.728L26.17,2.365A2.684,2.684,0,0,0,23.508,0H19.494a2.683,2.683,0,0,0-2.663,2.36L16.4,5.728a16.676,16.676,0,0,0-2.464,1.02l-2.677-2.08a2.665,2.665,0,0,0-3.546.219L4.9,7.706a2.671,2.671,0,0,0-.228,3.558l2.08,2.677A16.735,16.735,0,0,0,5.728,16.4l-3.363.428A2.684,2.684,0,0,0,0,19.494v4.014A2.683,2.683,0,0,0,2.36,26.17l3.368.428a16.932,16.932,0,0,0,1.02,2.462l-2.08,2.679a2.663,2.663,0,0,0,.219,3.546l2.822,2.822a2.673,2.673,0,0,0,3.557.226l2.677-2.08a16.542,16.542,0,0,0,2.462,1.02l.428,3.361A2.684,2.684,0,0,0,19.494,43h4.014a2.683,2.683,0,0,0,2.663-2.36l.428-3.368a16.932,16.932,0,0,0,2.462-1.02l2.679,2.08a2.663,2.663,0,0,0,3.546-.219l2.822-2.822a2.669,2.669,0,0,0,.228-3.557l-2.08-2.677a16.542,16.542,0,0,0,1.02-2.462l3.361-.428A2.684,2.684,0,0,0,43,23.508V19.494a2.68,2.68,0,0,0-2.358-2.663ZM21.5,30.46A8.959,8.959,0,1,1,30.46,21.5,8.969,8.969,0,0,1,21.5,30.46Z" transform="translate(2481 898)"/>
    <rect id="Rectangle_937" data-name="Rectangle 937" width="50" height="50" transform="translate(2477 895)" fill="none"/>
  </g>
</svg>
