<svg id="logo" xmlns="http://www.w3.org/2000/svg" xmlns:xlink="http://www.w3.org/1999/xlink" width="382.535" height="113.386" viewBox="0 0 382.535 113.386">
  <defs>
    <clipPath id="clip-path">
      <rect id="Rectangle_34" data-name="Rectangle 34" width="382.535" height="113.386" fill="none"/>
    </clipPath>
  </defs>
  <g id="Group_8" data-name="Group 8" clip-path="url(#clip-path)">
    <path id="Path_47" data-name="Path 47" d="M150.04,95.614a5.842,5.842,0,0,1-.677-1.548l-3.014-8.994h-.32l-2.992,8.755a7.085,7.085,0,0,1-.688,1.6,1.017,1.017,0,0,1-.644.429l-.114.022v.551h3.033v-.562l-.126-.013a1.682,1.682,0,0,1-.739-.164.658.658,0,0,1-.225-.561,2.789,2.789,0,0,1,.163-.829l.316-.96h2.715l.408,1.255c.11.343.17.536.181.589a1.212,1.212,0,0,1,.033.265.348.348,0,0,1-.09.264.9.9,0,0,1-.581.14h-.307v.576h4.285v-.562l-.126-.013a.69.69,0,0,1-.491-.239m-5.72-3.148,1.07-3.151,1.039,3.151Z" fill="#20992a"/>
    <path id="Path_48" data-name="Path 48" d="M156.584,92.171h.354a.7.7,0,0,1,.426.126.6.6,0,0,1,.228.271,2.833,2.833,0,0,1,.06.784V95.52a3.577,3.577,0,0,1-.539.2,2.256,2.256,0,0,1-.577.079,2.043,2.043,0,0,1-1.391-.516,3.138,3.138,0,0,1-.863-1.657,11.837,11.837,0,0,1-.277-2.705,12.244,12.244,0,0,1,.254-2.484,3.9,3.9,0,0,1,.838-1.843,1.841,1.841,0,0,1,1.439-.638,2.371,2.371,0,0,1,1.687.774,5.032,5.032,0,0,1,1.191,2.322l.027.1h.475v-4.1h-.474l-.028.1a1.473,1.473,0,0,1-.24.564.283.283,0,0,1-.207.116,3.1,3.1,0,0,1-.65-.285,4.971,4.971,0,0,0-.9-.375,4.61,4.61,0,0,0-1.147-.132,4.167,4.167,0,0,0-3.412,1.743,6.712,6.712,0,0,0-1.341,4.224,6.965,6.965,0,0,0,.438,2.523,5.384,5.384,0,0,0,.955,1.582,5.016,5.016,0,0,0,1.41,1.135,4.231,4.231,0,0,0,2.024.438,6.8,6.8,0,0,0,1.815-.242,7.044,7.044,0,0,0,1.685-.714l.069-.04V93.352a2.566,2.566,0,0,1,.049-.7.65.65,0,0,1,.223-.342,1.271,1.271,0,0,1,.57-.138l.129-.012v-.565h-4.3Z" fill="#20992a"/>
    <path id="Path_49" data-name="Path 49" d="M165.978,95.852h-.142a1.339,1.339,0,0,1-.694-.113.594.594,0,0,1-.237-.293,4.149,4.149,0,0,1-.073-1.063v-2.9h.315l2.666,4.946h2.832v-.567l-.131-.009a.755.755,0,0,1-.488-.229,5.522,5.522,0,0,1-.533-.858l-1.911-3.53a2.6,2.6,0,0,0,1.084-.731,3.132,3.132,0,0,0,.69-2.075,3.405,3.405,0,0,0-.458-1.787,2.418,2.418,0,0,0-1.2-1.064,6.535,6.535,0,0,0-2.247-.282h-3.985v.577h.142a1.366,1.366,0,0,1,.7.112.567.567,0,0,1,.234.3,3.947,3.947,0,0,1,.075,1.059v7.042a3.862,3.862,0,0,1-.076,1.057.594.594,0,0,1-.233.3,1.324,1.324,0,0,1-.7.115h-.142v.576h4.516Zm1.09-7.407a3.292,3.292,0,0,1-.229,1.331,1.3,1.3,0,0,1-.594.668,2.946,2.946,0,0,1-1.208.189h-.205V86.161h.51a1.511,1.511,0,0,1,1.31.536,2.94,2.94,0,0,1,.416,1.748" fill="#20992a"/>
    <path id="Path_50" data-name="Path 50" d="M175.609,95.852h-.417a.74.74,0,0,1-.464-.128.631.631,0,0,1-.227-.295,4.211,4.211,0,0,1-.063-1V87.293a4.03,4.03,0,0,1,.058-.962.627.627,0,0,1,.205-.319.787.787,0,0,1,.491-.139h.417V85.3H171v.577h.415a.747.747,0,0,1,.466.127.615.615,0,0,1,.223.295,4.236,4.236,0,0,1,.061,1v7.138a3.823,3.823,0,0,1-.062.967.585.585,0,0,1-.194.315.8.8,0,0,1-.494.139H171v.576h4.607Z" fill="#20992a"/>
    <path id="Path_51" data-name="Path 51" d="M178.813,95.955a4.245,4.245,0,0,0,2.43.721,3.684,3.684,0,0,0,1.831-.446,4.756,4.756,0,0,0,1.519-1.5V93.317l-.26.4A5.488,5.488,0,0,1,183,95.22a2.33,2.33,0,0,1-1.35.423,1.918,1.918,0,0,1-1.448-.569,3.683,3.683,0,0,1-.842-1.744,11.685,11.685,0,0,1-.277-2.621,8.773,8.773,0,0,1,.379-2.646,3.257,3.257,0,0,1,.907-1.468,1.949,1.949,0,0,1,1.325-.547,2.086,2.086,0,0,1,1.554.74,4.264,4.264,0,0,1,.965,2.187l.021.115h.5V85.048h-.507l-.013.127a1.085,1.085,0,0,1-.158.525.283.283,0,0,1-.226.131,2.166,2.166,0,0,1-.648-.272,4.205,4.205,0,0,0-1.907-.511,3.891,3.891,0,0,0-2.32.8,5.409,5.409,0,0,0-1.717,2.218,7.338,7.338,0,0,0-.63,3,7.157,7.157,0,0,0,.569,2.833,4.6,4.6,0,0,0,1.637,2.061" fill="#20992a"/>
    <path id="Path_52" data-name="Path 52" d="M193.56,91.509V87.388a3.429,3.429,0,0,1,.074-.882.921.921,0,0,1,.287-.482.768.768,0,0,1,.492-.151h.312v-.578h-3.144v.578h.141a1.263,1.263,0,0,1,.7.157.766.766,0,0,1,.241.367,3.2,3.2,0,0,1,.107.991v4.426a8.557,8.557,0,0,1-.227,2.38,2.246,2.246,0,0,1-.665,1.03,1.574,1.574,0,0,1-1.052.363,1.346,1.346,0,0,1-.882-.28,1.59,1.59,0,0,1-.507-.723,6.94,6.94,0,0,1-.161-1.882V87.388a4.751,4.751,0,0,1,.069-1.116.579.579,0,0,1,.208-.3,1.033,1.033,0,0,1,.577-.1h.354v-.578h-4.553v.437l.063.141h.142a1.053,1.053,0,0,1,.575.1.577.577,0,0,1,.222.293,4.505,4.505,0,0,1,.072,1.12V92.7a5.942,5.942,0,0,0,.34,2.206,2.961,2.961,0,0,0,1.183,1.377,3.226,3.226,0,0,0,1.735.4,2.968,2.968,0,0,0,2.13-.751,3.28,3.28,0,0,0,.978-1.632,13.979,13.979,0,0,0,.194-2.792" fill="#20992a"/>
    <path id="Path_53" data-name="Path 53" d="M203.336,92.338h-.516l-.025.11a9.2,9.2,0,0,1-.6,1.906,2.287,2.287,0,0,1-.713.907,1.754,1.754,0,0,1-1.016.278h-.69a2.106,2.106,0,0,1-.672-.055.43.43,0,0,1-.218-.26,4.222,4.222,0,0,1-.066-1.017V87.293a3.8,3.8,0,0,1,.061-.964.6.6,0,0,1,.2-.318.788.788,0,0,1,.492-.138h.5V85.3h-4.691v.577h.414a.753.753,0,0,1,.466.127.61.61,0,0,1,.223.295,4.256,4.256,0,0,1,.061,1V94.43a3.849,3.849,0,0,1-.061.969.579.579,0,0,1-.2.314.809.809,0,0,1-.494.139h-.414v.576H203Z" fill="#20992a"/>
    <path id="Path_54" data-name="Path 54" d="M205.947,95.394a.625.625,0,0,1-.205.318.783.783,0,0,1-.491.139h-.417v.577h4.614v-.577h-.416a.762.762,0,0,1-.472-.127.642.642,0,0,1-.227-.3,4.183,4.183,0,0,1-.062-1V86.2h.474a1.481,1.481,0,0,1,.734.121,1.716,1.716,0,0,1,.6.657A5.433,5.433,0,0,1,210.5,88.4l.023.114H211V85.295h-7.713v3.218h.5l.015-.123a3.4,3.4,0,0,1,.641-1.779,1.351,1.351,0,0,1,1.1-.411h.457v8.23a4.057,4.057,0,0,1-.058.964" fill="#20992a"/>
    <path id="Path_55" data-name="Path 55" d="M214.559,96.285a3.213,3.213,0,0,0,1.736.4,2.968,2.968,0,0,0,2.131-.752,3.263,3.263,0,0,0,.975-1.63,14.145,14.145,0,0,0,.195-2.793V87.388a3.363,3.363,0,0,1,.074-.882.914.914,0,0,1,.289-.481.758.758,0,0,1,.489-.152h.315V85.3h-3.144v.577h.141a1.246,1.246,0,0,1,.693.158.764.764,0,0,1,.242.366,3.271,3.271,0,0,1,.1.991v4.427a8.484,8.484,0,0,1-.227,2.38,2.23,2.23,0,0,1-.665,1.029,1.568,1.568,0,0,1-1.052.364,1.356,1.356,0,0,1-.879-.281,1.581,1.581,0,0,1-.509-.723,6.966,6.966,0,0,1-.159-1.881V87.388a4.778,4.778,0,0,1,.069-1.117.563.563,0,0,1,.2-.294,1.026,1.026,0,0,1,.58-.1h.354V85.3h-4.553v.437l.063.14h.141a1.047,1.047,0,0,1,.576.1.585.585,0,0,1,.222.294,4.466,4.466,0,0,1,.072,1.118V92.7a5.914,5.914,0,0,0,.339,2.2,2.953,2.953,0,0,0,1.182,1.378" fill="#20992a"/>
    <path id="Path_56" data-name="Path 56" d="M225.94,95.852H225.8a1.358,1.358,0,0,1-.695-.113.574.574,0,0,1-.236-.295,3.989,3.989,0,0,1-.075-1.061v-2.9h.318l2.665,4.946h2.831v-.567l-.131-.009a.76.76,0,0,1-.486-.229,4.9,4.9,0,0,1-.533-.858l-1.911-3.53a2.613,2.613,0,0,0,1.082-.731,3.131,3.131,0,0,0,.692-2.075,3.431,3.431,0,0,0-.458-1.787,2.432,2.432,0,0,0-1.205-1.064,6.611,6.611,0,0,0-2.248-.282h-3.984v.577h.142a1.374,1.374,0,0,1,.695.111.6.6,0,0,1,.235.3,4.078,4.078,0,0,1,.073,1.061v7.042a4.1,4.1,0,0,1-.072,1.056.618.618,0,0,1-.233.3,1.324,1.324,0,0,1-.7.116h-.142v.576h4.515Zm1.089-7.407a3.3,3.3,0,0,1-.226,1.331,1.3,1.3,0,0,1-.6.669,2.954,2.954,0,0,1-1.207.188h-.207V86.161h.513a1.513,1.513,0,0,1,1.309.535,2.953,2.953,0,0,1,.414,1.749" fill="#20992a"/>
    <path id="Path_57" data-name="Path 57" d="M238.284,92.7l-.023.111a4.112,4.112,0,0,1-.965,2.074,2.338,2.338,0,0,1-1.758.664h-.492a.708.708,0,0,1-.424-.1.509.509,0,0,1-.17-.258,5.336,5.336,0,0,1-.052-1.058V91.223a1.378,1.378,0,0,1,.684.176,1.544,1.544,0,0,1,.491.731,5.156,5.156,0,0,1,.3,1.48l.011.129h.5V87.777h-.505l-.01.13a4.753,4.753,0,0,1-.434,1.856,1.064,1.064,0,0,1-1.017.575H234.4V86.2h.713a3.712,3.712,0,0,1,1.226.133,1.719,1.719,0,0,1,.84.7,4.534,4.534,0,0,1,.477,1.634l.018.12h.5V85.3h-7.206v.577h.416a.729.729,0,0,1,.538.187.648.648,0,0,1,.183.353,7.059,7.059,0,0,1,.027.88v7.138a4.055,4.055,0,0,1-.058.967.592.592,0,0,1-.2.315.784.784,0,0,1-.492.139h-.416v.576h7.418l.4-3.729Z" fill="#20992a"/>
    <path id="Path_58" data-name="Path 58" d="M247.367,95.689a.659.659,0,0,1-.226-.561,2.819,2.819,0,0,1,.164-.829l.316-.96h2.714l.409,1.255c.109.34.17.532.181.592a1.069,1.069,0,0,1,.033.262.351.351,0,0,1-.087.263.9.9,0,0,1-.582.141h-.309v.576h4.285v-.562l-.127-.013a.7.7,0,0,1-.491-.238,5.618,5.618,0,0,1-.675-1.549l-3.015-8.994h-.32l-2.993,8.755a7.079,7.079,0,0,1-.686,1.6,1.016,1.016,0,0,1-.645.429l-.114.022v.551h3.033v-.562l-.126-.013a1.7,1.7,0,0,1-.739-.164m.561-3.223L249,89.315l1.039,3.151Z" fill="#20992a"/>
    <path id="Path_59" data-name="Path 59" d="M257.035,95.567a1.722,1.722,0,0,1-.285-1.168V88l5.372,8.678h.427V87.5a3.859,3.859,0,0,1,.094-1.043.784.784,0,0,1,.233-.388,1.521,1.521,0,0,1,.642-.2l.118-.02V85.3H260.62v.437l.048.14h.142a.88.88,0,0,1,.813.381,2.565,2.565,0,0,1,.193,1.248v4.16L257.955,85.3H254.8v.573l.136,0a.974.974,0,0,1,.5.126,1.747,1.747,0,0,1,.424.525l.155.216V94.4a2.021,2.021,0,0,1-.238,1.141,1.017,1.017,0,0,1-.841.312l-.14,0v.574h3.215v-.576h-.334a.889.889,0,0,1-.647-.285" fill="#20992a"/>
    <path id="Path_60" data-name="Path 60" d="M272.64,93.041a7.769,7.769,0,0,0,.284-2.147,7.527,7.527,0,0,0-.582-3.024,4.223,4.223,0,0,0-1.732-2.027,4.86,4.86,0,0,0-2.457-.547h-3.844v.577h.416a.747.747,0,0,1,.466.127.611.611,0,0,1,.224.295,4.349,4.349,0,0,1,.06,1v7.138a4.493,4.493,0,0,1-.049.963.7.7,0,0,1-.234.339.776.776,0,0,1-.467.119h-.416v.576h3.844a5.3,5.3,0,0,0,1.206-.1,4.747,4.747,0,0,0,1.466-.609,3.942,3.942,0,0,0,1.068-1.044,5.518,5.518,0,0,0,.747-1.635m-2.913,1.672a1.561,1.561,0,0,1-1.433.843.676.676,0,0,1-.4-.1.29.29,0,0,1-.109-.158,3.621,3.621,0,0,1-.041-.781V86.193a2.749,2.749,0,0,1,1.245.222,2.427,2.427,0,0,1,.957,1.257,9.088,9.088,0,0,1,.49,3.286,7.652,7.652,0,0,1-.712,3.755" fill="#20992a"/>
    <path id="Path_61" data-name="Path 61" d="M284.8,95.852h-.417a.743.743,0,0,1-.465-.128.627.627,0,0,1-.226-.295,4.212,4.212,0,0,1-.063-1V91.25h.1a1.511,1.511,0,0,1,1.068.454,3.127,3.127,0,0,1,.589,1.946l.01.13h.486V88.049h-.485l-.011.129a3.979,3.979,0,0,1-.3,1.337,1.307,1.307,0,0,1-1.356.862h-.1V86.2h.627a4.957,4.957,0,0,1,1.31.113,1.747,1.747,0,0,1,.942.689,3.369,3.369,0,0,1,.412,1.557l.01.129h.524V85.3h-7.263v.577h.417a.747.747,0,0,1,.466.127.615.615,0,0,1,.223.295,4.235,4.235,0,0,1,.061,1v7.138a3.859,3.859,0,0,1-.061.967.606.606,0,0,1-.2.315.8.8,0,0,1-.494.139h-.417v.576H284.8Z" fill="#20992a"/>
    <path id="Path_62" data-name="Path 62" d="M296.332,86.711a3.762,3.762,0,0,0-3.1-1.573c-.075,0-.151,0-.212.006s-.142-.006-.212-.006a3.688,3.688,0,0,0-2.991,1.576,6.53,6.53,0,0,0-1.283,4.115,7.145,7.145,0,0,0,.983,3.795,4.085,4.085,0,0,0,7.141-.1,7.2,7.2,0,0,0,.94-3.7,6.581,6.581,0,0,0-1.263-4.111m-4.59,8.227a8.591,8.591,0,0,1-.728-4.037,10.323,10.323,0,0,1,.472-3.534c.376-.962.9-1.43,1.594-1.43a1.409,1.409,0,0,1,.993.4,3.175,3.175,0,0,1,.738,1.445,12.57,12.57,0,0,1,.3,3.183,11.717,11.717,0,0,1-.294,2.9,3.354,3.354,0,0,1-.8,1.571,1.308,1.308,0,0,1-.95.362,1.452,1.452,0,0,1-1.327-.858" fill="#20992a"/>
    <path id="Path_63" data-name="Path 63" d="M303.3,96.677a3.958,3.958,0,0,0,3.569-2.151,7.214,7.214,0,0,0,.94-3.7,6.585,6.585,0,0,0-1.264-4.111,3.763,3.763,0,0,0-3.105-1.573c-.074,0-.15,0-.212.006s-.141-.006-.211-.006a3.69,3.69,0,0,0-2.992,1.576,6.537,6.537,0,0,0-1.283,4.116,7.142,7.142,0,0,0,.984,3.795,3.994,3.994,0,0,0,3.574,2.052m-1.6-9.31c.375-.962.9-1.43,1.6-1.43a1.43,1.43,0,0,1,.993.4,3.185,3.185,0,0,1,.737,1.445,12.573,12.573,0,0,1,.3,3.183,11.717,11.717,0,0,1-.293,2.9,3.361,3.361,0,0,1-.8,1.571,1.314,1.314,0,0,1-.951.362,1.456,1.456,0,0,1-1.328-.857,8.618,8.618,0,0,1-.728-4.038,10.326,10.326,0,0,1,.472-3.534" fill="#20992a"/>
    <path id="Path_64" data-name="Path 64" d="M316.222,94.676a5.476,5.476,0,0,0,.747-1.635,7.769,7.769,0,0,0,.284-2.147,7.526,7.526,0,0,0-.582-3.024,4.223,4.223,0,0,0-1.732-2.027,4.863,4.863,0,0,0-2.457-.547h-3.844v.577h.416a.747.747,0,0,1,.466.127.611.611,0,0,1,.224.295,4.349,4.349,0,0,1,.06,1v7.138a4.5,4.5,0,0,1-.049.963.7.7,0,0,1-.234.339.776.776,0,0,1-.467.119h-.416v.576h3.844a5.3,5.3,0,0,0,1.206-.1,4.747,4.747,0,0,0,1.466-.609,3.942,3.942,0,0,0,1.068-1.044m-2.166.037a1.561,1.561,0,0,1-1.433.843.676.676,0,0,1-.4-.1.287.287,0,0,1-.109-.157,3.678,3.678,0,0,1-.041-.782V86.193a2.749,2.749,0,0,1,1.245.222,2.427,2.427,0,0,1,.957,1.257,9.088,9.088,0,0,1,.49,3.286,7.652,7.652,0,0,1-.712,3.755" fill="#20992a"/>
    <path id="Path_65" data-name="Path 65" d="M326.684,95.866l-.127-.013a1.73,1.73,0,0,1-.739-.163.662.662,0,0,1-.226-.562,2.817,2.817,0,0,1,.165-.829l.314-.96h2.717l.408,1.255c.111.343.17.539.18.589a1.183,1.183,0,0,1,.032.265.351.351,0,0,1-.088.264.9.9,0,0,1-.582.14h-.306v.576h4.284v-.562l-.127-.013a.7.7,0,0,1-.49-.239,5.817,5.817,0,0,1-.676-1.548l-3.015-8.994h-.32L325.1,93.827a7.085,7.085,0,0,1-.688,1.6,1.019,1.019,0,0,1-.645.429l-.113.022v.551h3.033Zm-.3-3.4,1.07-3.151,1.039,3.151Z" fill="#20992a"/>
    <path id="Path_66" data-name="Path 66" d="M334.972,95.111a5.017,5.017,0,0,0,1.411,1.135,4.229,4.229,0,0,0,2.023.438,6.768,6.768,0,0,0,1.816-.242,7.046,7.046,0,0,0,1.684-.713l.07-.041V93.351a2.794,2.794,0,0,1,.045-.7.673.673,0,0,1,.227-.342,1.238,1.238,0,0,1,.567-.139l.129-.011v-.566h-4.3v.577H339a.712.712,0,0,1,.425.125.6.6,0,0,1,.227.272,2.839,2.839,0,0,1,.06.784v2.168a3.338,3.338,0,0,1-.54.2,2.212,2.212,0,0,1-.576.079,2.036,2.036,0,0,1-1.389-.516,3.135,3.135,0,0,1-.865-1.656,11.907,11.907,0,0,1-.276-2.706,12.094,12.094,0,0,1,.254-2.484,3.909,3.909,0,0,1,.839-1.843,1.837,1.837,0,0,1,1.437-.638,2.361,2.361,0,0,1,1.686.775,5.019,5.019,0,0,1,1.191,2.321l.028.106h.477V85.048H341.5l-.028.1a1.4,1.4,0,0,1-.24.563.277.277,0,0,1-.206.116,3.114,3.114,0,0,1-.65-.285,4.932,4.932,0,0,0-.9-.374,4.6,4.6,0,0,0-1.147-.133,4.168,4.168,0,0,0-3.412,1.744,6.71,6.71,0,0,0-1.34,4.223,6.943,6.943,0,0,0,.437,2.523,5.371,5.371,0,0,0,.955,1.582" fill="#20992a"/>
    <path id="Path_67" data-name="Path 67" d="M350.861,92.7l-.023.111a4.112,4.112,0,0,1-.965,2.074,2.338,2.338,0,0,1-1.758.664h-.493a.7.7,0,0,1-.423-.1.511.511,0,0,1-.17-.258,5.327,5.327,0,0,1-.053-1.058V91.223a1.378,1.378,0,0,1,.684.176,1.54,1.54,0,0,1,.491.731,5.179,5.179,0,0,1,.3,1.48l.01.129h.505V87.777h-.505l-.01.13a4.788,4.788,0,0,1-.434,1.856,1.064,1.064,0,0,1-1.017.575h-.023V86.2h.714a3.709,3.709,0,0,1,1.225.133,1.721,1.721,0,0,1,.841.7,4.558,4.558,0,0,1,.476,1.634l.018.12h.5V85.3h-7.205v.577h.415a.731.731,0,0,1,.539.187.662.662,0,0,1,.183.352,7.54,7.54,0,0,1,.026.881v7.138a4.06,4.06,0,0,1-.058.967.592.592,0,0,1-.2.315.784.784,0,0,1-.492.139h-.415v.576h7.417l.4-3.729Z" fill="#20992a"/>
    <path id="Path_68" data-name="Path 68" d="M358.117,85.733l.049.139h.141a.881.881,0,0,1,.814.382,2.569,2.569,0,0,1,.192,1.247v4.16l-3.86-6.365H352.3v.572l.135.005a.977.977,0,0,1,.505.127,1.679,1.679,0,0,1,.423.525l.155.216V94.4a2.021,2.021,0,0,1-.238,1.141,1.016,1.016,0,0,1-.841.312l-.139,0v.574h3.216v-.576h-.336a.889.889,0,0,1-.647-.285,1.725,1.725,0,0,1-.284-1.168V88l5.371,8.678h.427V87.5a3.847,3.847,0,0,1,.094-1.042.8.8,0,0,1,.233-.389,1.57,1.57,0,0,1,.642-.2l.118-.019V85.3h-3.016Z" fill="#20992a"/>
    <path id="Path_69" data-name="Path 69" d="M369.744,85.175a1.059,1.059,0,0,1-.158.524.281.281,0,0,1-.226.133,2.162,2.162,0,0,1-.648-.273,4.224,4.224,0,0,0-1.907-.511,3.887,3.887,0,0,0-2.32.8,5.4,5.4,0,0,0-1.717,2.217,7.344,7.344,0,0,0-.631,3,7.179,7.179,0,0,0,.569,2.833,4.6,4.6,0,0,0,1.638,2.06,4.246,4.246,0,0,0,2.43.722,3.677,3.677,0,0,0,1.832-.447,4.765,4.765,0,0,0,1.518-1.5V93.318l-.26.4a5.489,5.489,0,0,1-1.331,1.506,2.337,2.337,0,0,1-1.351.423,1.921,1.921,0,0,1-1.448-.569,3.673,3.673,0,0,1-.842-1.744,11.62,11.62,0,0,1-.277-2.62,8.78,8.78,0,0,1,.379-2.647A3.269,3.269,0,0,1,365.9,86.6a1.958,1.958,0,0,1,1.326-.547,2.092,2.092,0,0,1,1.554.739,4.288,4.288,0,0,1,.965,2.188l.021.115h.5V85.048h-.507Z" fill="#20992a"/>
    <path id="Path_70" data-name="Path 70" d="M380.328,85.851V85.3h-2.807v.568l.131.009a1.079,1.079,0,0,1,.675.2.334.334,0,0,1,.114.259,4.776,4.776,0,0,1-.542,1.534l-1.355,2.977-1.368-3.293a5.38,5.38,0,0,1-.479-1.4.269.269,0,0,1,.1-.187.584.584,0,0,1,.4-.1h.318V85.3h-4.246v.575l.14,0a.723.723,0,0,1,.532.209,6.7,6.7,0,0,1,.789,1.577l1.936,4.6V94.43a3.8,3.8,0,0,1-.062.967.606.606,0,0,1-.2.317.774.774,0,0,1-.492.138h-.576v.576h4.926v-.576h-.6a.692.692,0,0,1-.44-.127A.617.617,0,0,1,377,95.43a4.632,4.632,0,0,1-.06-1l-.012-2.565,1.793-3.932a8.739,8.739,0,0,1,.938-1.794.934.934,0,0,1,.549-.268Z" fill="#20992a"/>
    <path id="Path_71" data-name="Path 71" d="M382.138,94.283a1.216,1.216,0,0,0-1.013-.592,1.038,1.038,0,0,0-.85.455,1.622,1.622,0,0,0-.335,1.013,1.577,1.577,0,0,0,.292.946.9.9,0,0,0,.739.426.661.661,0,0,0,.513-.2.29.29,0,0,1,.023.138,2.748,2.748,0,0,1-.3,1.238,2.341,2.341,0,0,1-.973.975l-.071.041v.642l.194-.077a3.254,3.254,0,0,0,1.634-1.364,4.057,4.057,0,0,0,.548-2.1,2.657,2.657,0,0,0-.4-1.54" fill="#20992a"/>
    <path id="Path_72" data-name="Path 72" d="M171.074,108.828,168.855,102h-3.624v.577h.4a.756.756,0,0,1,.468.128.6.6,0,0,1,.226.291,4.169,4.169,0,0,1,.061.985v6.866c0,.475,0,.742-.011.793a1.677,1.677,0,0,1-.173.539.725.725,0,0,1-.3.277.866.866,0,0,1-.41.1h-.263v.576h3.114v-.576H168.2a1.043,1.043,0,0,1-.734-.214,1.055,1.055,0,0,1-.3-.573,8.3,8.3,0,0,1-.028-.962v-6.756l2.977,9.081h.351L173.394,104v7.138a3.843,3.843,0,0,1-.062.965.638.638,0,0,1-.2.317.8.8,0,0,1-.5.139h-.41v.576h4.6v-.576h-.41a.751.751,0,0,1-.47-.129.6.6,0,0,1-.224-.293,4.342,4.342,0,0,1-.061-1v-7.154a3.779,3.779,0,0,1,.06-.954.632.632,0,0,1,.2-.312.793.793,0,0,1,.5-.138h.41V102h-3.613Z" fill="#20992a"/>
    <path id="Path_73" data-name="Path 73" d="M177.523,102.575h.415a.753.753,0,0,1,.466.127.6.6,0,0,1,.223.3,4.245,4.245,0,0,1,.06,1v7.139a3.954,3.954,0,0,1-.06.967.6.6,0,0,1-.195.315.8.8,0,0,1-.494.139h-.415v.576h4.607v-.576h-.417a.746.746,0,0,1-.465-.128.629.629,0,0,1-.226-.3,4.019,4.019,0,0,1-.064-1v-7.139a4.028,4.028,0,0,1,.059-.962.644.644,0,0,1,.2-.319.782.782,0,0,1,.492-.138h.417V102h-4.607Z" fill="#20992a"/>
    <path id="Path_74" data-name="Path 74" d="M188.629,102.435l.046.14h.141a.882.882,0,0,1,.817.382,2.564,2.564,0,0,1,.192,1.246v4.16L185.965,102H182.81v.572l.135,0a.976.976,0,0,1,.506.128,1.694,1.694,0,0,1,.422.526l.157.214V111.1a1.988,1.988,0,0,1-.241,1.14,1,1,0,0,1-.84.312h-.139v.575h3.217v-.576h-.337a.882.882,0,0,1-.646-.286,1.716,1.716,0,0,1-.285-1.166v-6.4l5.372,8.678h.427V104.2a4,4,0,0,1,.094-1.041.8.8,0,0,1,.233-.39,1.566,1.566,0,0,1,.642-.2l.118-.019V102h-3.016Z" fill="#20992a"/>
    <path id="Path_75" data-name="Path 75" d="M192.4,102.575h.415a.753.753,0,0,1,.466.127.6.6,0,0,1,.223.3,4.245,4.245,0,0,1,.06,1v7.139a3.859,3.859,0,0,1-.061.967.578.578,0,0,1-.195.315.8.8,0,0,1-.493.139H192.4v.576h4.607v-.576H196.6a.745.745,0,0,1-.465-.128.633.633,0,0,1-.226-.3,4.113,4.113,0,0,1-.064-1v-7.139a3.833,3.833,0,0,1,.061-.963.63.63,0,0,1,.2-.318.782.782,0,0,1,.492-.138h.417V102H192.4Z" fill="#20992a"/>
    <path id="Path_76" data-name="Path 76" d="M201.723,106.133a11.852,11.852,0,0,1-1.3-.92,2.412,2.412,0,0,1-.537-.7,1.466,1.466,0,0,1,.216-1.5,1.068,1.068,0,0,1,.876-.385,1.836,1.836,0,0,1,1.388.779,4.054,4.054,0,0,1,.838,2.117l.015.122h.519l-.071-3.9h-.444l-.018.118a1.61,1.61,0,0,1-.147.557.152.152,0,0,1-.134.069,1.229,1.229,0,0,1-.5-.238,3.514,3.514,0,0,0-.728-.37,2.538,2.538,0,0,0-.827-.136,2.391,2.391,0,0,0-1.941.965,3.586,3.586,0,0,0-.756,2.3,3.716,3.716,0,0,0,.276,1.447,3.862,3.862,0,0,0,.787,1.188,9.765,9.765,0,0,0,1.648,1.26,6.871,6.871,0,0,1,1.1.824,2.093,2.093,0,0,1,.444.642,1.728,1.728,0,0,1,.145.689,1.6,1.6,0,0,1-.374,1.048,1.2,1.2,0,0,1-.979.437,2.051,2.051,0,0,1-1.542-.858,5.22,5.22,0,0,1-1-2.569l-.019-.119h-.487v4.378h.468l.033-.1a1,1,0,0,1,.248-.428.393.393,0,0,1,.24-.124.914.914,0,0,1,.413.143,4.96,4.96,0,0,0,.9.4,2.76,2.76,0,0,0,.778.109,2.691,2.691,0,0,0,2.162-1.032,3.71,3.71,0,0,0,.84-2.429,3.781,3.781,0,0,0-.52-1.978,6.363,6.363,0,0,0-2-1.814" fill="#20992a"/>
    <path id="Path_77" data-name="Path 77" d="M205.414,105.216h.5l.015-.124a3.4,3.4,0,0,1,.641-1.777,1.354,1.354,0,0,1,1.1-.412h.456v8.231a3.99,3.99,0,0,1-.06.965.62.62,0,0,1-.2.317.8.8,0,0,1-.493.138h-.416v.576h4.614v-.576h-.417a.755.755,0,0,1-.472-.128.628.628,0,0,1-.225-.3,4.12,4.12,0,0,1-.063-1V102.9h.474a1.469,1.469,0,0,1,.735.122,1.751,1.751,0,0,1,.6.656,5.442,5.442,0,0,1,.418,1.421l.023.114h.478V102h-7.712Z" fill="#20992a"/>
    <path id="Path_78" data-name="Path 78" d="M222.59,112.325a5.493,5.493,0,0,1-.534-.858l-1.909-3.529a2.575,2.575,0,0,0,1.081-.733,3.122,3.122,0,0,0,.693-2.074,3.405,3.405,0,0,0-.46-1.787,2.422,2.422,0,0,0-1.2-1.064A6.628,6.628,0,0,0,218.01,102h-3.984v.577h.141a1.375,1.375,0,0,1,.7.113.575.575,0,0,1,.234.294,4.029,4.029,0,0,1,.074,1.062v7.042a4.042,4.042,0,0,1-.073,1.056.615.615,0,0,1-.235.3,1.332,1.332,0,0,1-.7.115h-.141v.576h4.515v-.576H218.4a1.341,1.341,0,0,1-.695-.113.585.585,0,0,1-.236-.294,4.024,4.024,0,0,1-.074-1.061v-2.9h.316l2.666,4.946h2.83v-.567l-.13-.009a.75.75,0,0,1-.487-.229m-5.195-9.462h.511a1.514,1.514,0,0,1,1.31.535,2.958,2.958,0,0,1,.415,1.749,3.277,3.277,0,0,1-.229,1.332,1.3,1.3,0,0,1-.595.668,2.939,2.939,0,0,1-1.206.188H217.4Z" fill="#20992a"/>
    <path id="Path_79" data-name="Path 79" d="M229.232,102.565l.131.01a1.081,1.081,0,0,1,.678.2.33.33,0,0,1,.112.256,4.786,4.786,0,0,1-.543,1.535l-1.353,2.978-1.37-3.294a5.4,5.4,0,0,1-.478-1.394.269.269,0,0,1,.1-.188.588.588,0,0,1,.4-.1h.318V102h-4.247v.575l.139,0a.723.723,0,0,1,.534.209,6.652,6.652,0,0,1,.788,1.578l1.936,4.6v2.176a3.884,3.884,0,0,1-.06.964.616.616,0,0,1-.2.319.783.783,0,0,1-.491.137h-.575v.577h4.925v-.577h-.6a.681.681,0,0,1-.439-.126.625.625,0,0,1-.219-.293,4.207,4.207,0,0,1-.06-1l-.013-2.566,1.794-3.933a8.675,8.675,0,0,1,.94-1.794.924.924,0,0,1,.546-.267l.117-.021V102h-2.807Z" fill="#20992a"/>
    <path id="Path_80" data-name="Path 80" d="M243.368,101.841c-.075,0-.152,0-.214.006s-.143-.006-.214-.006a3.688,3.688,0,0,0-2.989,1.575,6.531,6.531,0,0,0-1.283,4.116,7.15,7.15,0,0,0,.983,3.8,4.085,4.085,0,0,0,7.142-.1,7.2,7.2,0,0,0,.94-3.7,6.583,6.583,0,0,0-1.263-4.111,3.759,3.759,0,0,0-3.1-1.573m-1.489,9.8a8.624,8.624,0,0,1-.727-4.038,10.331,10.331,0,0,1,.471-3.534c.376-.963.9-1.431,1.6-1.431a1.4,1.4,0,0,1,.993.4,3.174,3.174,0,0,1,.738,1.445,12.534,12.534,0,0,1,.3,3.182,11.711,11.711,0,0,1-.293,2.9,3.363,3.363,0,0,1-.8,1.571,1.316,1.316,0,0,1-.952.361,1.457,1.457,0,0,1-1.327-.856" fill="#20992a"/>
    <path id="Path_81" data-name="Path 81" d="M248.676,102.575h.416a.749.749,0,0,1,.465.127.606.606,0,0,1,.223.3,4.18,4.18,0,0,1,.061,1v7.139a3.911,3.911,0,0,1-.061.967.6.6,0,0,1-.195.315.8.8,0,0,1-.493.139h-.416v.576h4.608v-.576h-.417a.742.742,0,0,1-.466-.128.638.638,0,0,1-.226-.3,4.066,4.066,0,0,1-.063-1v-3.18h.1a1.516,1.516,0,0,1,1.069.453,3.134,3.134,0,0,1,.588,1.946l.01.13h.487v-5.731h-.486l-.011.129a3.994,3.994,0,0,1-.3,1.336,1.3,1.3,0,0,1-1.357.863h-.1V102.9h.627a4.906,4.906,0,0,1,1.31.114,1.727,1.727,0,0,1,.942.687,3.385,3.385,0,0,1,.412,1.558l.011.13h.523V102h-7.261Z" fill="#20992a"/>
    <path id="Path_82" data-name="Path 82" d="M270.166,112.315a5.5,5.5,0,0,1-.676-1.547l-3.015-8.995h-.32l-2.992,8.755a7.025,7.025,0,0,1-.687,1.6,1.012,1.012,0,0,1-.644.429l-.114.022v.552h3.033v-.563l-.127-.013a1.7,1.7,0,0,1-.739-.162.664.664,0,0,1-.226-.563,2.828,2.828,0,0,1,.165-.829l.315-.959h2.715l.408,1.254c.11.343.171.536.181.59a1.135,1.135,0,0,1,.032.264.351.351,0,0,1-.087.265.9.9,0,0,1-.581.139H266.5v.577h4.284v-.563l-.126-.013a.692.692,0,0,1-.491-.239m-5.719-3.147,1.07-3.151,1.039,3.151Z" fill="#20992a"/>
    <path id="Path_83" data-name="Path 83" d="M276.71,108.873h.355a.705.705,0,0,1,.425.124.61.61,0,0,1,.228.273,2.862,2.862,0,0,1,.06.783v2.167a3.329,3.329,0,0,1-.541.2,2.2,2.2,0,0,1-.575.079,2.05,2.05,0,0,1-1.391-.516,3.136,3.136,0,0,1-.863-1.657,11.839,11.839,0,0,1-.276-2.7,12.116,12.116,0,0,1,.254-2.485,3.908,3.908,0,0,1,.838-1.843,1.84,1.84,0,0,1,1.438-.638,2.37,2.37,0,0,1,1.687.774,5.033,5.033,0,0,1,1.189,2.322l.028.105h.476V101.75h-.476l-.027.1a1.442,1.442,0,0,1-.238.563.29.29,0,0,1-.208.117,3.256,3.256,0,0,1-.65-.286,4.924,4.924,0,0,0-.9-.374,4.565,4.565,0,0,0-1.146-.133,4.167,4.167,0,0,0-3.412,1.743,6.709,6.709,0,0,0-1.341,4.224,6.982,6.982,0,0,0,.437,2.524,5.381,5.381,0,0,0,.955,1.58,5.031,5.031,0,0,0,1.412,1.136,4.225,4.225,0,0,0,2.022.438,6.859,6.859,0,0,0,1.816-.241,6.962,6.962,0,0,0,1.684-.715l.069-.04v-2.337a2.526,2.526,0,0,1,.049-.7.646.646,0,0,1,.223-.342,1.241,1.241,0,0,1,.569-.138l.13-.012V108.3h-4.3Z" fill="#20992a"/>
    <path id="Path_84" data-name="Path 84" d="M290.154,112.325a4.94,4.94,0,0,1-.533-.858l-1.911-3.53a2.574,2.574,0,0,0,1.082-.732,3.119,3.119,0,0,0,.692-2.075,3.431,3.431,0,0,0-.458-1.787,2.434,2.434,0,0,0-1.2-1.063,6.623,6.623,0,0,0-2.247-.283h-3.985v.578h.141a1.374,1.374,0,0,1,.7.113.583.583,0,0,1,.234.295,4.06,4.06,0,0,1,.073,1.06v7.043a4.021,4.021,0,0,1-.073,1.056.612.612,0,0,1-.235.3,1.318,1.318,0,0,1-.7.115h-.141v.577H286.1v-.577h-.141a1.346,1.346,0,0,1-.7-.112.581.581,0,0,1-.236-.3,4.038,4.038,0,0,1-.074-1.059v-2.9h.317l2.665,4.946h2.832v-.567l-.131-.01a.744.744,0,0,1-.487-.228m-5.2-4.99v-4.472h.512a1.512,1.512,0,0,1,1.309.535,2.954,2.954,0,0,1,.415,1.749,3.277,3.277,0,0,1-.229,1.332,1.3,1.3,0,0,1-.6.667,2.916,2.916,0,0,1-1.206.189Z" fill="#20992a"/>
    <path id="Path_85" data-name="Path 85" d="M291.128,102.575h.416a.755.755,0,0,1,.466.127.6.6,0,0,1,.222.3,4.236,4.236,0,0,1,.061,1v7.139a3.727,3.727,0,0,1-.062.967.585.585,0,0,1-.194.315.8.8,0,0,1-.493.139h-.416v.576h4.607v-.576h-.416a.747.747,0,0,1-.466-.128.636.636,0,0,1-.226-.3,4.111,4.111,0,0,1-.064-1v-7.139a3.834,3.834,0,0,1,.061-.963.617.617,0,0,1,.2-.318.781.781,0,0,1,.491-.138h.416V102h-4.607Z" fill="#20992a"/>
    <path id="Path_86" data-name="Path 86" d="M304.34,101.876a1.067,1.067,0,0,1-.159.526.28.28,0,0,1-.225.132,2.117,2.117,0,0,1-.648-.272,4.2,4.2,0,0,0-1.908-.512,3.878,3.878,0,0,0-2.319.8,5.4,5.4,0,0,0-1.717,2.216,7.334,7.334,0,0,0-.631,3,7.171,7.171,0,0,0,.568,2.833,4.628,4.628,0,0,0,1.637,2.061,4.261,4.261,0,0,0,2.432.721,3.654,3.654,0,0,0,1.83-.447,4.712,4.712,0,0,0,1.519-1.5V110.02l-.26.4a5.453,5.453,0,0,1-1.331,1.5,2.33,2.33,0,0,1-1.35.424,1.943,1.943,0,0,1-1.448-.57,3.683,3.683,0,0,1-.843-1.743,11.61,11.61,0,0,1-.276-2.621,8.719,8.719,0,0,1,.38-2.647,3.256,3.256,0,0,1,.9-1.467,1.931,1.931,0,0,1,1.327-.547,2.062,2.062,0,0,1,1.553.739,4.274,4.274,0,0,1,.966,2.187l.021.115h.5V101.75h-.507Z" fill="#20992a"/>
    <path id="Path_87" data-name="Path 87" d="M311.707,102.575h.142a1.253,1.253,0,0,1,.7.16.731.731,0,0,1,.24.364,3.256,3.256,0,0,1,.106.992v4.426a8.49,8.49,0,0,1-.227,2.379,2.254,2.254,0,0,1-.664,1.031,1.6,1.6,0,0,1-1.053.363,1.34,1.34,0,0,1-.88-.281,1.588,1.588,0,0,1-.508-.722,6.947,6.947,0,0,1-.16-1.883v-5.313a4.8,4.8,0,0,1,.068-1.116.581.581,0,0,1,.206-.3,1.044,1.044,0,0,1,.579-.1h.354V102h-4.552v.437l.062.14h.141a1.056,1.056,0,0,1,.577.1.6.6,0,0,1,.222.293,4.626,4.626,0,0,1,.071,1.12V109.4a5.9,5.9,0,0,0,.341,2.206,2.964,2.964,0,0,0,1.182,1.378,3.224,3.224,0,0,0,1.735.4,2.961,2.961,0,0,0,2.13-.751,3.258,3.258,0,0,0,.977-1.631,14.14,14.14,0,0,0,.2-2.792v-4.121a3.48,3.48,0,0,1,.074-.883.9.9,0,0,1,.288-.48.76.76,0,0,1,.491-.153h.312V102h-3.144Z" fill="#20992a"/>
    <path id="Path_88" data-name="Path 88" d="M322.921,109.149a9.185,9.185,0,0,1-.6,1.908,2.3,2.3,0,0,1-.713.906,1.753,1.753,0,0,1-1.016.278h-.69a2.1,2.1,0,0,1-.671-.055.435.435,0,0,1-.219-.26,4.207,4.207,0,0,1-.066-1.017v-6.915a3.8,3.8,0,0,1,.061-.963.625.625,0,0,1,.2-.318.783.783,0,0,1,.493-.138h.5V102h-4.692v.577h.415a.755.755,0,0,1,.466.127.6.6,0,0,1,.224.295,4.429,4.429,0,0,1,.059,1v7.139a4.044,4.044,0,0,1-.059.967.6.6,0,0,1-.2.315.806.806,0,0,1-.495.139h-.415v.576h7.616l.332-4.09h-.515Z" fill="#20992a"/>
    <path id="Path_89" data-name="Path 89" d="M323.418,105.216h.5l.015-.124a3.4,3.4,0,0,1,.641-1.777,1.354,1.354,0,0,1,1.1-.412h.457v8.231a3.857,3.857,0,0,1-.061.965.615.615,0,0,1-.2.317.79.79,0,0,1-.492.138h-.416v.576h4.614v-.576h-.417a.753.753,0,0,1-.472-.128.628.628,0,0,1-.225-.3,4.087,4.087,0,0,1-.064-1V102.9h.475a1.469,1.469,0,0,1,.735.122,1.759,1.759,0,0,1,.6.656,5.442,5.442,0,0,1,.418,1.421l.023.114h.478V102h-7.712Z" fill="#20992a"/>
    <path id="Path_90" data-name="Path 90" d="M337.744,102.575h.142a1.247,1.247,0,0,1,.694.16.734.734,0,0,1,.241.364,3.257,3.257,0,0,1,.106.992v4.426a8.49,8.49,0,0,1-.227,2.379,2.251,2.251,0,0,1-.664,1.031,1.6,1.6,0,0,1-1.053.363,1.343,1.343,0,0,1-.881-.281,1.617,1.617,0,0,1-.508-.722,6.985,6.985,0,0,1-.159-1.883v-5.313a4.7,4.7,0,0,1,.069-1.116.574.574,0,0,1,.205-.3,1.044,1.044,0,0,1,.579-.1h.354V102h-4.551v.437l.061.14h.141a1.061,1.061,0,0,1,.577.1.579.579,0,0,1,.221.293,4.41,4.41,0,0,1,.073,1.12V109.4a5.937,5.937,0,0,0,.339,2.206,2.957,2.957,0,0,0,1.182,1.378,3.233,3.233,0,0,0,1.736.4,2.961,2.961,0,0,0,2.13-.751,3.258,3.258,0,0,0,.977-1.631,13.967,13.967,0,0,0,.194-2.792v-4.121a3.442,3.442,0,0,1,.075-.883.9.9,0,0,1,.288-.48.764.764,0,0,1,.491-.153h.312V102h-3.144Z" fill="#20992a"/>
    <path id="Path_91" data-name="Path 91" d="M350.116,112.325a5.493,5.493,0,0,1-.534-.858l-1.909-3.529a2.575,2.575,0,0,0,1.081-.733,3.118,3.118,0,0,0,.692-2.074,3.407,3.407,0,0,0-.459-1.787,2.422,2.422,0,0,0-1.2-1.064,6.628,6.628,0,0,0-2.247-.282h-3.984v.577h.141a1.375,1.375,0,0,1,.7.113.575.575,0,0,1,.234.294,4.028,4.028,0,0,1,.074,1.062v7.042a4.042,4.042,0,0,1-.073,1.056.615.615,0,0,1-.235.3,1.332,1.332,0,0,1-.7.115h-.141v.576h4.515v-.576h-.141a1.341,1.341,0,0,1-.7-.113.585.585,0,0,1-.236-.294,4.024,4.024,0,0,1-.074-1.061v-2.9h.316l2.666,4.946h2.83v-.567l-.13-.009a.75.75,0,0,1-.487-.229m-5.2-9.462h.511a1.514,1.514,0,0,1,1.31.535,2.958,2.958,0,0,1,.415,1.749,3.277,3.277,0,0,1-.229,1.332,1.3,1.3,0,0,1-.6.668,2.939,2.939,0,0,1-1.206.188h-.206Z" fill="#20992a"/>
    <path id="Path_92" data-name="Path 92" d="M358.388,109.513a4.112,4.112,0,0,1-.965,2.074,2.372,2.372,0,0,1-1.757.662h-.494a.691.691,0,0,1-.422-.1.492.492,0,0,1-.171-.257,5.428,5.428,0,0,1-.053-1.058v-2.914a1.367,1.367,0,0,1,.683.178,1.533,1.533,0,0,1,.494.73,5.243,5.243,0,0,1,.3,1.48l.011.129h.5V104.48h-.5l-.011.13a4.776,4.776,0,0,1-.434,1.855,1.061,1.061,0,0,1-1.016.575h-.024V102.9h.713a3.707,3.707,0,0,1,1.227.133,1.726,1.726,0,0,1,.84.7,4.565,4.565,0,0,1,.476,1.634l.019.12h.495V102h-7.2v.577h.415a.736.736,0,0,1,.539.188.654.654,0,0,1,.182.353,6.73,6.73,0,0,1,.029.879v7.139a3.743,3.743,0,0,1-.062.967.581.581,0,0,1-.2.315.79.79,0,0,1-.492.138h-.415v.576h7.416l.4-3.728h-.5Z" fill="#20992a"/>
    <path id="Path_93" data-name="Path 93" d="M193.977,72.841l1.2,2.055A26.561,26.561,0,0,1,191.97,76.8a18.971,18.971,0,0,0,6.649.952l-.779,2.561q-2.127-.208-3.8-.506-6.261-1.4-11.44-7.265h-2.816v4.734q2.994-.417,4.463-.744l.479,2.322a50.562,50.562,0,0,1-10.242,1.251l-.39-2.353,3.205-.208v-5h-3.265a20.8,20.8,0,0,1-1.677,7.592l-2.276-.8a23.3,23.3,0,0,0,1.647-9.051V64.5a.571.571,0,0,1,.629-.625H197.63v2.233H174.391q-.3-.028-.3.3v3.9H198.05v2.234H185.861a19.994,19.994,0,0,0,3.444,2.888,35.425,35.425,0,0,0,4.672-2.591m2.6-18.848q.33-.029.33.3v7.92a.29.29,0,0,1-.33.328H171.845a.294.294,0,0,1-.3-.328v-7.92a.264.264,0,0,1,.3-.3h7.367V51.969H181.7v2.024h5.061V51.969h2.486v2.024Zm-17.37,1.995h-5.091q-.12,0-.09.09v1.25h5.181Zm0,3.335h-5.181v1.1l.09.119h5.091Zm17.28,9.886H176.337v-2h20.155Zm-9.733-13.221H181.7v1.34h5.061Zm0,3.335H181.7v1.221h5.061Zm2.486-2h5.181v-1.25l-.12-.09h-5.061Zm0,3.216h5.061l.12-.119v-1.1h-5.181Z" fill="#008a32"/>
    <path id="Path_94" data-name="Path 94" d="M216.812,80.107h-2.486V74.063a33.179,33.179,0,0,1-11.89,4.615l-.958-2.5a32.1,32.1,0,0,0,11.979-4.288h-11.11V69.537h11.979v-1.7H203.9V65.725h10.422V63.909H203.065V61.795H209.8a20.325,20.325,0,0,0-1.2-2.769h-6.619V56.674H207.2a16.738,16.738,0,0,0-1.827-3.127l2.037-1.25a16.5,16.5,0,0,1,2.156,3.692l-1.288.685h3.594v-4.7h2.366v4.7h2.785v-4.7h2.366v4.7h2.965l-.928-.685a22.575,22.575,0,0,0,2.515-3.811l2.037,1.25a22.05,22.05,0,0,1-2.067,3.246h5.061v2.352h-6.947l-1.079,2.769h7.068v2.114h-11.2v1.816h10.362V67.84H216.812v1.7h11.919v2.352H218.069a31.457,31.457,0,0,0,11.59,4.585L228.372,78.8a38.075,38.075,0,0,1-11.56-5Zm1.5-18.312,1.2-2.769h-8.236l1.078,2.769Z" fill="#008a32"/>
    <path id="Path_95" data-name="Path 95" d="M244.2,57.328l2.216.774a56.038,56.038,0,0,1-1.767,5.6h3.863v2.352H233.028V63.7h9.134a36.778,36.778,0,0,0,2.037-6.372m-4.762-5.359h2.605v2.2h5.87v2.352H233.627V54.172h5.81Zm-3.2,27.929h-2.486V68.732a.343.343,0,0,1,.389-.387h12.818q.539,0,.539.506V79.9h-2.486v-1.34h-8.774Zm1.048-22.421a36.936,36.936,0,0,1,1.557,5l-2.276.507a37.326,37.326,0,0,0-1.527-4.854Zm7.726,18.729V71.025c0-.218-.119-.328-.359-.328h-8.056c-.26,0-.38.12-.359.358v5.151Zm7.1-20.575V80.2h-2.6V53.249c.019-.3.168-.447.449-.447h8.8l1.677,1.31-2.815,9.022a.923.923,0,0,0,.119.715,19.668,19.668,0,0,1,2.845,4.973q1.139,4.287-.389,6.788a3.9,3.9,0,0,1-1.8,1.549q-1.977.776-5.361-.625l.33-2.829q2.7,1.369,3.833,1.042,1.707-.447,1.438-3.9-.45-2.529-3.474-6.7-.3-.447-.24-.655l2.426-7.831.06-.387h-4.942a.317.317,0,0,0-.359.357" fill="#008a32"/>
    <path id="Path_96" data-name="Path 96" d="M287.818,72.841l1.2,2.055A26.656,26.656,0,0,1,285.81,76.8a18.973,18.973,0,0,0,6.65.952l-.78,2.561q-2.127-.208-3.8-.506-6.262-1.4-11.44-7.265h-2.817v4.734q2.994-.417,4.464-.744l.479,2.322a50.572,50.572,0,0,1-10.242,1.251l-.391-2.353,3.206-.208v-5h-3.266a20.783,20.783,0,0,1-1.677,7.592l-2.276-.8a23.281,23.281,0,0,0,1.647-9.051V64.5a.571.571,0,0,1,.629-.625H291.47v2.233H268.232q-.3-.028-.3.3v3.9h23.96v2.234H279.7a19.918,19.918,0,0,0,3.444,2.888,35.425,35.425,0,0,0,4.672-2.591m2.6-18.848c.22-.019.331.08.331.3v7.92a.291.291,0,0,1-.331.328H265.685a.294.294,0,0,1-.3-.328v-7.92a.264.264,0,0,1,.3-.3h7.367V51.969h2.486v2.024H280.6V51.969h2.487v2.024Zm-17.37,1.995h-5.091q-.119,0-.09.09v1.25h5.181Zm0,3.335h-5.181v1.1l.09.119h5.091Zm17.28,9.886H270.177v-2h20.155ZM280.6,55.988h-5.061v1.34H280.6Zm0,3.335h-5.061v1.221H280.6Zm2.487-2h5.181v-1.25l-.121-.09h-5.06Zm0,3.216h5.06l.121-.119v-1.1h-5.181Z" fill="#008a32"/>
    <path id="Path_97" data-name="Path 97" d="M301.728,79.988h-2.366V70.1a36.37,36.37,0,0,1-2.006,4.02l-2.4-.745a27.218,27.218,0,0,0,3.833-8.158h-3.324V62.867h3.893V52.088h2.366V62.867h3.354v2.352h-3.354v.149a54.732,54.732,0,0,1,3.923,4.883l-1.857,1.429L301.728,68.7Zm-4.223-26.054a39.242,39.242,0,0,1,1.258,7l-2.216.209a39.447,39.447,0,0,0-1.228-6.849Zm8.326.387a62.513,62.513,0,0,1-1.528,6.848l-1.976-.625a43.337,43.337,0,0,0,1.467-6.7Zm7.307,22.153H306.25v-2h6.888V73.2h-6.289a.294.294,0,0,1-.3-.328v-7.8a.264.264,0,0,1,.3-.3H322q.328-.029.329.3v7.8A.29.29,0,0,1,322,73.2h-6.5v1.28h7.068v2H315.5v1.281h8.266v2.114H304.932V77.755h8.206ZM323.41,63.968H305.531V61.973H323.41Zm-1.767-3.037H306.969a.294.294,0,0,1-.3-.327V53.041a.265.265,0,0,1,.3-.3h14.674q.33-.029.33.3V60.6a.29.29,0,0,1-.33.327m-8.505,5.717h-4.133q-.12,0-.09.09v1.369h4.223Zm0,3.335h-4.223V71.2l.09.119h4.133Zm6.469-14.024V54.708l-.09-.089H309.125c-.08,0-.11.03-.09.089v1.251Zm-10.572,1.876v1.1l.09.119h10.392l.09-.119v-1.1ZM315.5,68.107h4.462V66.738l-.09-.09H315.5Zm0,3.216h4.372l.09-.119V69.983H315.5Z" fill="#008a32"/>
    <path id="Path_98" data-name="Path 98" d="M334.265,80.256H331.78V71.621q-2.4.535-4.463.8l-.9-2.382A66.1,66.1,0,0,0,336.781,67.6h-9.793V65.249h11.56V63.433H330.1V61.08h8.446V59.264H328.156a.32.32,0,0,1-.33-.357V53.071c.02-.218.13-.328.33-.328h24.916c.24,0,.36.11.36.328v5.836a.317.317,0,0,1-.36.357H341.153V61.08h6.828v1.34l3.8-2.531,1.377,2.055-5.45,3.305h6.618V67.6H343.16l-3.983,1.668-.33.149h12.309q.837,0,.838.8V80.256h-2.485V79.035H334.265Zm1.228-25.4H330.4q-.12,0-.09.09v2.084l.09.119h5.091Zm14.016,18.372v-1.37q0-.327-.36-.327H334.6q-.36,0-.33.327v1.37Zm-15.244,3.692h15.243V75.343H334.265ZM343.4,54.857h-5.421V57.15H343.4Zm2.845,8.576h-5.091v1.816h1.528Zm-.359-6.283h4.941l.12-.119V54.947l-.12-.09h-4.941Z" fill="#008a32"/>
    <path id="Path_100" data-name="Path 100" d="M91.832,33.847a14.29,14.29,0,0,1,3.42-.419,3.892,3.892,0,0,1-2.28-.629,2.3,2.3,0,0,1-1.14.279c-.712-.07-1.354-.279-2-.279-.285,1.048-.926.489-1.425.978a7.071,7.071,0,0,0,3.42.07" fill="#20992a"/>
    <path id="Path_101" data-name="Path 101" d="M110.284,36.922v-.14l-1.924-1.467c-.142-.07-.284-.21-.427-.28-.57-.14-1.14-.21-1.5.349.641.35,1.282.769,1.923,1.049a3.308,3.308,0,0,0,1.924.489" fill="#20992a"/>
    <path id="Path_102" data-name="Path 102" d="M101.45,34.266a2.006,2.006,0,0,0,.926-.07c.285-.978-.071-.769-.427-.769a1.075,1.075,0,0,1-.5-.07c-.356-.139-.641-.419-1-.209-.072.349.285.629.5.908a.653.653,0,0,0,.5.21" fill="#20992a"/>
    <path id="Path_103" data-name="Path 103" d="M104.3,34.825c.427.14.926.21,1.069.07l-.072-.21a.627.627,0,0,0-.783-.279c-.072,0-.143-.07-.214-.07-.214-.21-.428-.559-.713-.7.072.629-.5.279-.356.839a6.333,6.333,0,0,0,1.069.349" fill="#20992a"/>
    <path id="Path_104" data-name="Path 104" d="M99.882,33.777c.071-.419-.143-.489-.356-.629l-.57-.07a7.514,7.514,0,0,0-.926-.28c-.5-.139-1.069-.279-1.211,0,.071.21-.784.42-.713.63a16.264,16.264,0,0,0,1.924.349,5.266,5.266,0,0,0,1.852,0" fill="#20992a"/>
    <path id="Path_105" data-name="Path 105" d="M102.732,39.089c-.071-.14-.712-.21-1.282-.28a3.032,3.032,0,0,0-1,.07c-.071.14.428.28,1,.49a13,13,0,0,0,2.066.489c.071-.14-.713-.559-.784-.769" fill="#20992a"/>
    <path id="Path_106" data-name="Path 106" d="M105.368,40.067l.356.629a18.167,18.167,0,0,0,2.636.629.54.54,0,0,0,.356-.07,1.531,1.531,0,0,0-.356-.279c-.784-.56-2.707-1.119-2.992-.909" fill="#20992a"/>
    <path id="Path_107" data-name="Path 107" d="M114.2,42.793a1.367,1.367,0,0,0-1.14-.21c-.214.28.214.56.285.839.285.14.57.35.855.489a1.481,1.481,0,0,0,1.211.07,6.436,6.436,0,0,0-1.211-1.188" fill="#20992a"/>
    <path id="Path_108" data-name="Path 108" d="M110.5,41.6c-.143.07-.356-.14-.428.21.357.629.713.419,1.14.489a.746.746,0,0,1,.57.559c.214-.07.642-.14.57-.419-.356-.35-.783-.28-1.14-.42a2.681,2.681,0,0,1-.712-.419" fill="#20992a"/>
    <g id="Group_915" data-name="Group 915">
      <path id="Path_99" data-name="Path 99" d="M54,.018A16.647,16.647,0,0,1,71.456,15.674a16.725,16.725,0,0,1-33.412,1.468A16.535,16.535,0,0,1,54,.018" fill="#f38200"/>
      <path id="Path_109" data-name="Path 109" d="M124.888,54.675c.072.7.642.35.713.979,0,.21-.143.419-.285.349-.428-.419-.926-.209-1.354-.559a1.521,1.521,0,0,1-.926-1.467c-.356-.14-.926-.839-1.211-.14-.356,0-.712-.35-.926-.769a3.361,3.361,0,0,0-1.5-.35c-.357,0-.926-1.048-1.211-.069-.214.139-.5-.14-.642-.42,0-.489-1.852-1.118-1.852-1.537.071-.14.214,0,.285-.14-.142-.28-.285-.489-.57-.489-.214-.14-.57-.49-.427-.769a10.642,10.642,0,0,1,3.419,1.258c.072.14-.071.209-.142.279.57.7,1.282.629,2,.839a17.658,17.658,0,0,0,3.206,1.678c.427-.21-.143-.42-.143-.769.356-.629.641,1.188,1.069.838.783.49.142.49.855.49-1.425-2.866-1.781-1.678-3.634-3.705-.783-.139-1.14-1.258-1.638-1.957-.5.07-1.069-1.188-1.5-.7-.57.28-1.354-.279-1.782-.978-.641,0-.641-.839-1.211-.7a5.862,5.862,0,0,1-1.282-.7c-.285-.21-.5-.489-.784-.7a3.914,3.914,0,0,1-2.208-.7c-.071,0-.071-.07-.143-.07-.213-.978-.855-.14-1.211-.629-.5.14-1-.21-1.5-.349a1.44,1.44,0,0,0-.784-.07A14.88,14.88,0,0,0,104.3,41.6a7.584,7.584,0,0,1-1.211-.279c-.926.349-.427-1.678-1.425-1.119-.071.14-.071.49-.214.49h-.071a1.426,1.426,0,0,1-.427-.629A27.557,27.557,0,0,0,98.03,40c-1.71-.07-3.491-.14-3.776-.559-.5,0,3.705-.839,3.42-1.468a.547.547,0,0,1,.356-.14c.57-.14,1.211.21,1.852.14.285-.14,0-.559.214-.769.427-.35.712.28,1.14.629a.263.263,0,0,0,.213.07c.143-.07.286-.35.428-.419a4.722,4.722,0,0,1,2.422.139c.855.21,1.781.629,2.636.909.428.839.926.979,1.425.909a4.409,4.409,0,0,1,1.354.07c.213.139.57.419.427.768.641.7,0-.489.5-.419.214.07.356.14.57.21a17.73,17.73,0,0,1,2.992,1.188c.285.21.5.349.784.559.071-.14-.214-.559-.784-.978a16.814,16.814,0,0,0-2.992-1.888c-.071,0-.071,0-.143-.069a6.69,6.69,0,0,0-2.707-1.4,4.216,4.216,0,0,0-.57-.28c-.5-.21-1.14.07-1.638-.419-.713-.56-1.211-.07-1.853-.14a1.337,1.337,0,0,1-.712-.35c-.5.14-.926-.419-1.425-.349a1.907,1.907,0,0,0-.713-.42c-.854-.139-1.709.56-2.564-.489a3.529,3.529,0,0,1-.855.07,25.588,25.588,0,0,0-3.277,0c-.57.559-1.283.07-1.924-.14a4.781,4.781,0,0,1-1,.07,5.351,5.351,0,0,0-2.351.07,1.972,1.972,0,0,1-2,.7,2.912,2.912,0,0,0-2.494.28c-3.419.07-3.063.768-5.984,1.747-1.425.7-2.565,2.167-4.274,1.957v-.07c1.424-1.957,3.775-1.957,5.485-3.285,2.636-1.747,2.85-1.188,5.985-1.887.356-.349.855-.349,1.282-.559.071,0,.071-.07.142-.14a.528.528,0,0,0-.142-.28,7.964,7.964,0,0,0-2.85.07C62.123,39.648,48.445,55.654,46.806,71.73v6.71c1.568,14.887,14.249,28.8,40.68,33.339a43.244,43.244,0,0,0,4.346.629q2.993.42,6.2.629l3.419.21c.927,0,1.924.07,2.85.07.642,0,1.283.069,1.995.069-.712-.419-1.353-.768-1.995-1.118-1-.559-1.923-1.118-2.85-1.677-1.211-.7-2.351-1.468-3.419-2.167-2.28-1.468-4.275-2.936-6.2-4.4-1.568-1.258-2.993-2.447-4.346-3.635-20.019-18.172-14.819-35.716,0-43.544a40.4,40.4,0,0,1,4.346-1.887,34.883,34.883,0,0,1,6.2-1.607c1.14-.21,2.28-.35,3.419-.49.927-.07,1.924-.14,2.85-.14a39.587,39.587,0,0,1,4.061.07c1,.07,1.924.14,2.85.28,1,.14,2,.28,2.992.489a50.39,50.39,0,0,1,13.18,4.613c.926-.279-2.066-3.355-2.494-3.495m-36.4-15.726-1,.14-2.636.35c.427-1.119,2,.349,2-1.259-.214-.139-.784-.139-.855-.419a2.526,2.526,0,0,1,1.5-.279,15.726,15.726,0,0,1,2.565.209c-.5.909-.784.629-1.568,1.258m3.349-.279a4.9,4.9,0,0,0-1-.14,4.548,4.548,0,0,1,1-.559,4.713,4.713,0,0,1,3.633-.35l.143.28c-.5,1.048-1.71.769-2.494.908a2.694,2.694,0,0,1-1.282-.139M114.2,49.713c-.427-.07-1.069-.21-.926.489-.713-.07-.713-1.258-1.5-1.258-.214-.07-.356-.14-.57-.21-.926-.209-1.852-.419-2.85-.629-.57-.209-1.211-.419-1.852-.629.071-.559.641-.7,1.14-.768a1.906,1.906,0,0,0,.712.419,3,3,0,0,0,1.069.14c.641.279,1.211.559,1.781.769,1,.349,1.923.629,2.992,1.048a.069.069,0,0,1,.071.07l.143.489a.265.265,0,0,1-.214.07" fill="#20992a"/>
      <path id="Path_110" data-name="Path 110" d="M43.814,64.111C50.938,37.272,28.212,20.777,0,13.647c42.6,37.184-10.473,88.976,73.166,99.04-4.773-1.467-38.542-14.118-29.352-48.576" fill="#8cc42a"/>
    </g>
  </g>
</svg>
